<svg xmlns="http://www.w3.org/2000/svg" viewBox="0 0 250 250" width="100%" height="100%">
  <path d="M 160 140 Q 195 125 185 85" fill="none" stroke="#64748b" stroke-width="6" stroke-linecap="round" />
  <circle cx="185" cy="85" r="8" fill="#fcd34d" stroke="#64748b" stroke-width="4" />

  <rect x="42" y="65" width="26" height="60" rx="13" transform="rotate(25 55 95)" fill="#94a3b8" stroke="#475569" stroke-width="4" />
  <rect x="182" y="65" width="26" height="60" rx="13" transform="rotate(-25 195 95)" fill="#94a3b8" stroke="#475569" stroke-width="4" />

  <circle cx="75" cy="165" r="22" fill="#94a3b8" stroke="#475569" stroke-width="4" />
  <rect x="45" y="175" width="36" height="16" rx="8" fill="#64748b" stroke="#475569" stroke-width="4" />
  <circle cx="175" cy="165" r="22" fill="#94a3b8" stroke="#475569" stroke-width="4" />
  <rect x="169" y="175" width="36" height="16" rx="8" fill="#64748b" stroke="#475569" stroke-width="4" />

  <rect x="85" y="110" width="80" height="70" rx="30" fill="#e2e8f0" stroke="#475569" stroke-width="4" />

  <rect x="105" y="145" width="40" height="16" rx="6" fill="#1e293b" />
  <rect x="110" y="149" width="8" height="8" rx="2" fill="#22c55e" />
  <rect x="121" y="149" width="8" height="8" rx="2" fill="#22c55e" />
  <rect x="132" y="149" width="8" height="8" rx="2" fill="#22c55e" />

  <rect x="95" y="125" width="22" height="65" rx="11" fill="#cbd5e1" stroke="#475569" stroke-width="4" />
  <rect x="133" y="125" width="22" height="65" rx="11" fill="#cbd5e1" stroke="#475569" stroke-width="4" />

  <line x1="99" y1="180" x2="113" y2="180" stroke="#475569" stroke-width="3" stroke-linecap="round" />
  <line x1="137" y1="180" x2="151" y2="180" stroke="#475569" stroke-width="3" stroke-linecap="round" />

  <rect x="90" y="112" width="70" height="14" rx="7" fill="#ef4444" stroke="#475569" stroke-width="4" />
  <circle cx="125" cy="133" r="10" fill="#fbbf24" stroke="#475569" stroke-width="4" />
  <circle cx="125" cy="133" r="3" fill="#f59e0b" />

  <line x1="125" y1="45" x2="125" y2="15" stroke="#475569" stroke-width="4" stroke-linecap="round" />
  <circle cx="125" cy="15" r="7" fill="#38bdf8" stroke="#475569" stroke-width="4" />
  <circle cx="125" cy="15" r="12" fill="#38bdf8" opacity="0.3" />

  <rect x="65" y="45" width="120" height="85" rx="35" fill="#cbd5e1" stroke="#475569" stroke-width="4" />
  <rect x="80" y="55" width="90" height="58" rx="20" fill="#0f172a" stroke="#1e293b" stroke-width="2" />

  <ellipse cx="103" cy="78" rx="8" ry="13" fill="#38bdf8" />
  <circle cx="101" cy="73" r="3" fill="#ffffff" />
  <ellipse cx="147" cy="78" rx="8" ry="13" fill="#38bdf8" />
  <circle cx="145" cy="73" r="3" fill="#ffffff" />

  <circle cx="92" cy="95" r="6" fill="#f43f5e" opacity="0.7" />
  <circle cx="158" cy="95" r="6" fill="#f43f5e" opacity="0.7" />
  <path d="M 116 92 Q 125 102 134 92" fill="none" stroke="#38bdf8" stroke-width="4" stroke-linecap="round" />
  <path d="M 85 55 Q 125 50 165 55" fill="none" stroke="#ffffff" stroke-width="4" stroke-linecap="round" opacity="0.5" />
</svg>
