<svg xmlns="http://www.w3.org/2000/svg" width="1200" height="760" viewBox="0 0 1200 760">
  <defs>
    <linearGradient id="bg4" x1="0" y1="0" x2="1" y2="1">
      <stop offset="0%" stop-color="#21150d" />
      <stop offset="100%" stop-color="#121d1f" />
    </linearGradient>
  </defs>
  <rect width="1200" height="760" fill="url(#bg4)" rx="28" />
  <rect x="42" y="42" width="1116" height="676" rx="20" fill="#161410" stroke="#57624d" />
  <rect x="42" y="42" width="1116" height="66" rx="20" fill="#2a2015" />
  <text x="84" y="84" font-family="JetBrains Mono, monospace" font-size="21" fill="#f4ddbc">Buddio - Script runner</text>

  <rect x="90" y="146" width="436" height="520" rx="14" fill="#25231c" />
  <text x="124" y="196" font-family="Nunito, sans-serif" font-size="30" font-weight="700" fill="#f8e8d0">Saved commands</text>
  <rect x="124" y="232" width="368" height="62" rx="11" fill="#35553f" />
  <text x="148" y="272" font-family="JetBrains Mono, monospace" font-size="24" fill="#d7f3df">/deploy staging</text>
  <rect x="124" y="312" width="368" height="62" rx="11" fill="#353126" />
  <text x="148" y="352" font-family="JetBrains Mono, monospace" font-size="24" fill="#eddbb7">/release patch</text>
  <rect x="124" y="392" width="368" height="62" rx="11" fill="#353126" />
  <text x="148" y="432" font-family="JetBrains Mono, monospace" font-size="24" fill="#eddbb7">/migrate safe</text>

  <rect x="558" y="146" width="556" height="520" rx="14" fill="#1e251f" />
  <text x="590" y="196" font-family="Nunito, sans-serif" font-size="30" font-weight="700" fill="#e4f2e7">Pre-run checks</text>

  <rect x="590" y="230" width="492" height="82" rx="10" fill="#162923" stroke="#2e6a57" />
  <text x="620" y="280" font-family="Nunito, sans-serif" font-size="26" fill="#9ad9bf">All tests passed</text>

  <rect x="590" y="326" width="492" height="82" rx="10" fill="#2c2319" stroke="#8b643f" />
  <text x="620" y="376" font-family="Nunito, sans-serif" font-size="26" fill="#ffd9aa">Pending db backup confirmation</text>

  <rect x="590" y="520" width="220" height="52" rx="12" fill="#2e6a57" />
  <text x="644" y="554" font-family="Nunito, sans-serif" font-size="25" font-weight="700" fill="#f4fff9">Run now</text>

  <rect x="830" y="520" width="252" height="52" rx="12" fill="#5f3720" />
  <text x="878" y="554" font-family="Nunito, sans-serif" font-size="25" font-weight="700" fill="#fff5ec">Cancel</text>
</svg>
