<svg xmlns="http://www.w3.org/2000/svg" width="1200" height="760" viewBox="0 0 1200 760">
  <defs>
    <linearGradient id="bg5" x1="0" y1="0" x2="1" y2="1">
      <stop offset="0%" stop-color="#281a11" />
      <stop offset="100%" stop-color="#17212d" />
    </linearGradient>
  </defs>
  <rect width="1200" height="760" fill="url(#bg5)" rx="28" />
  <rect x="42" y="42" width="1116" height="676" rx="20" fill="#1b1410" stroke="#5e4631" />
  <rect x="42" y="42" width="1116" height="66" rx="20" fill="#322216" />
  <text x="84" y="84" font-family="JetBrains Mono, monospace" font-size="21" fill="#f7deb8">Buddio - Prompt history</text>

  <rect x="90" y="146" width="370" height="520" rx="14" fill="#2b1d14" />
  <text x="122" y="198" font-family="Nunito, sans-serif" font-size="29" font-weight="700" fill="#fbe8cf">Recent threads</text>
  <rect x="122" y="236" width="306" height="92" rx="12" fill="#4f321f" />
  <text x="144" y="270" font-family="Nunito, sans-serif" font-size="22" fill="#ffdcb6">PR clean-up helper</text>
  <text x="144" y="300" font-family="Nunito, sans-serif" font-size="20" fill="#f5c493">Yesterday</text>

  <rect x="122" y="344" width="306" height="92" rx="12" fill="#352417" />
  <text x="144" y="378" font-family="Nunito, sans-serif" font-size="22" fill="#f7dfbf">Standup summaries</text>
  <text x="144" y="408" font-family="Nunito, sans-serif" font-size="20" fill="#d1b08e">2 days ago</text>

  <rect x="122" y="452" width="306" height="92" rx="12" fill="#352417" />
  <text x="144" y="486" font-family="Nunito, sans-serif" font-size="22" fill="#f7dfbf">Release checklist</text>
  <text x="144" y="516" font-family="Nunito, sans-serif" font-size="20" fill="#d1b08e">Last week</text>

  <rect x="490" y="146" width="624" height="520" rx="14" fill="#1a2029" />
  <text x="524" y="196" font-family="Nunito, sans-serif" font-size="30" font-weight="700" fill="#d9ebff">Reuse prompt</text>
  <rect x="524" y="232" width="556" height="274" rx="12" fill="#121821" stroke="#2f4c78" />
  <rect x="550" y="268" width="504" height="10" fill="#8fb5e3" rx="5" />
  <rect x="550" y="296" width="486" height="10" fill="#8fb5e3" rx="5" />
  <rect x="550" y="324" width="520" height="10" fill="#8fb5e3" rx="5" />
  <rect x="550" y="352" width="468" height="10" fill="#8fb5e3" rx="5" />
  <rect x="550" y="380" width="430" height="10" fill="#8fb5e3" rx="5" />
  <rect x="550" y="440" width="240" height="50" rx="12" fill="#3470bd" />
  <text x="602" y="474" font-family="Nunito, sans-serif" font-size="25" font-weight="700" fill="#f6fbff">Use again</text>
</svg>
