<svg xmlns="http://www.w3.org/2000/svg" width="1200" height="760" viewBox="0 0 1200 760">
  <defs>
    <linearGradient id="bg" x1="0" y1="0" x2="1" y2="1">
      <stop offset="0%" stop-color="#2c1d12" />
      <stop offset="100%" stop-color="#1b120c" />
    </linearGradient>
    <linearGradient id="panel" x1="0" y1="0" x2="0" y2="1">
      <stop offset="0%" stop-color="#3a2618" />
      <stop offset="100%" stop-color="#2b1d12" />
    </linearGradient>
  </defs>
  <rect width="1200" height="760" fill="url(#bg)" rx="28" />
  <rect x="44" y="44" width="1112" height="672" fill="#20150d" rx="20" stroke="#5f3b22" />
  <rect x="44" y="44" width="1112" height="62" fill="#2f1f13" rx="20" />
  <circle cx="84" cy="75" r="9" fill="#ef4444" />
  <circle cx="113" cy="75" r="9" fill="#f59e0b" />
  <circle cx="142" cy="75" r="9" fill="#22c55e" />
  <text x="190" y="81" font-family="JetBrains Mono, monospace" font-size="20" fill="#f4d7b4">Buddio - Standup helper</text>

  <rect x="88" y="140" width="270" height="520" fill="url(#panel)" rx="14" />
  <rect x="112" y="178" width="222" height="14" fill="#805735" rx="7" />
  <rect x="112" y="212" width="190" height="12" fill="#6e4a2d" rx="6" />
  <rect x="112" y="240" width="210" height="12" fill="#6e4a2d" rx="6" />
  <rect x="112" y="292" width="222" height="54" fill="#523622" rx="10" />
  <rect x="112" y="368" width="222" height="54" fill="#523622" rx="10" />

  <rect x="392" y="140" width="722" height="520" fill="url(#panel)" rx="14" />
  <rect x="424" y="176" width="658" height="62" fill="#3f2a1a" rx="10" />
  <text x="448" y="214" font-family="Nunito, sans-serif" font-size="30" fill="#fff3e1">/summarize yesterday-notes.md</text>

  <rect x="424" y="266" width="658" height="344" fill="#20150d" rx="10" stroke="#624126" />
  <text x="456" y="320" font-family="Nunito, sans-serif" font-size="32" font-weight="700" fill="#ffd9ad">Daily update draft</text>
  <rect x="456" y="346" width="590" height="10" fill="#d2a071" rx="5" />
  <rect x="456" y="374" width="560" height="10" fill="#d2a071" rx="5" />
  <rect x="456" y="402" width="598" height="10" fill="#d2a071" rx="5" />
  <rect x="456" y="430" width="540" height="10" fill="#d2a071" rx="5" />
  <rect x="456" y="458" width="620" height="10" fill="#d2a071" rx="5" />
  <rect x="456" y="504" width="220" height="48" fill="#ea7b1a" rx="12" />
  <text x="503" y="536" font-family="Nunito, sans-serif" font-size="24" font-weight="700" fill="#fff9f1">Copy draft</text>
</svg>
