<svg xmlns="http://www.w3.org/2000/svg" width="1200" height="760" viewBox="0 0 1200 760">
  <defs>
    <linearGradient id="bg2" x1="0" y1="0" x2="1" y2="1">
      <stop offset="0%" stop-color="#2a1b10" />
      <stop offset="100%" stop-color="#131822" />
    </linearGradient>
  </defs>
  <rect width="1200" height="760" fill="url(#bg2)" rx="28" />
  <rect x="42" y="42" width="1116" height="676" rx="20" fill="#19110b" stroke="#5a3c23" />
  <rect x="42" y="42" width="1116" height="66" rx="20" fill="#2f2014" />
  <text x="84" y="83" font-family="JetBrains Mono, monospace" font-size="21" fill="#f8deb9">Buddio - Project search</text>

  <rect x="90" y="148" width="1020" height="80" rx="14" fill="#3a2618" />
  <text x="126" y="198" font-family="Nunito, sans-serif" font-size="35" fill="#f7e9d4">auth timeout bug</text>
  <rect x="92" y="250" width="1016" height="404" rx="14" fill="#21160f" stroke="#6d4528" />

  <rect x="126" y="286" width="948" height="72" rx="12" fill="#8f4f1f" />
  <text x="156" y="332" font-family="Nunito, sans-serif" font-size="30" font-weight="700" fill="#fff6e7">ENG-2841  Fix auth timeout in desktop login flow</text>

  <rect x="126" y="376" width="948" height="64" rx="12" fill="#3a2618" />
  <text x="156" y="417" font-family="Nunito, sans-serif" font-size="28" fill="#f2d8b4">ENG-2779  Improve item search ranking by recency</text>

  <rect x="126" y="456" width="948" height="64" rx="12" fill="#3a2618" />
  <text x="156" y="497" font-family="Nunito, sans-serif" font-size="28" fill="#f2d8b4">ENG-2662  Add usage analytics export endpoint</text>

  <rect x="126" y="536" width="948" height="64" rx="12" fill="#3a2618" />
  <text x="156" y="577" font-family="Nunito, sans-serif" font-size="28" fill="#f2d8b4">DOC-145  Release notes for v0.9.2</text>

  <rect x="896" y="286" width="178" height="44" rx="10" fill="#101826" />
  <text x="940" y="315" font-family="Nunito, sans-serif" font-size="23" fill="#84b6ff">Open</text>
</svg>
